<svg xmlns="http://www.w3.org/2000/svg" fill="none" viewBox="0 0 28 24"><path fill="#55bb7a" d="M18.43 0A18.4 18.4 0 0 0 5.57 5.23 18.4 18.4 0 0 0 0 18.43v5.27h5.27c6.63 0 12.44-3.5 15.69-8.75q.8-1.3 1.39-2.72a27 27 0 0 0 .87-2.83l.13-.5a18 18 0 0 0 .35-3.62V0zm1.2 9.77a18.4 18.4 0 0 1-17 11.3c0-4.49 1.6-8.6 4.27-11.8q.54-.64 1.13-1.24.45-.44.92-.85a18.4 18.4 0 0 1 12.12-4.55c0 2.53-.51 4.95-1.44 7.14"/><path fill="#f2c15b" d="M27.6 10.7c-.08.3-2.3 1.7-5.24 1.53a27 27 0 0 0 .86-2.82l2.32-.9z"/></svg>