<svg width="48" height="48" viewBox="0 0 48 48" fill="none" xmlns="http://www.w3.org/2000/svg">
<path d="M0.424698 8.16331C0.424698 4.07568 3.73837 0.762009 7.82599 0.762009H39.7684C43.856 0.762009 47.1697 4.07568 47.1697 8.1633V40.1057C47.1697 44.1933 43.856 47.507 39.7684 47.507H7.82599C3.73837 47.507 0.424698 44.1933 0.424698 40.1057V8.16331Z" fill="white" stroke="#D0D0D0" stroke-width="0.779083"/>
<path d="M25.8427 14.3959H17.6623C17.1199 14.3959 16.5997 14.6114 16.2162 14.9949C15.8327 15.3784 15.6172 15.8986 15.6172 16.441V32.8018C15.6172 33.3441 15.8327 33.8643 16.2162 34.2479C16.5997 34.6314 17.1199 34.8468 17.6623 34.8468H29.9328C30.4752 34.8468 30.9954 34.6314 31.3789 34.2479C31.7625 33.8643 31.9779 33.3441 31.9779 32.8018V20.5312L25.8427 14.3959Z" stroke="#242424" stroke-width="1.55817" stroke-linecap="round" stroke-linejoin="round"/>
<path d="M25.8438 14.3959V20.5312H31.979" stroke="#242424" stroke-width="1.55817" stroke-linecap="round" stroke-linejoin="round"/>
<path d="M27.8874 25.6439H19.707" stroke="#242424" stroke-width="1.55817" stroke-linecap="round" stroke-linejoin="round"/>
<path d="M27.8874 29.734H19.707" stroke="#242424" stroke-width="1.55817" stroke-linecap="round" stroke-linejoin="round"/>
<path d="M21.7521 21.5537H20.7296H19.707" stroke="#242424" stroke-width="1.55817" stroke-linecap="round" stroke-linejoin="round"/>
</svg>
