<svg width="198" height="45" viewBox="0 0 198 45" fill="none" xmlns="http://www.w3.org/2000/svg">
<g clip-path="url(#clip0_3950_13123)">
<path d="M180.945 0C171.644 0 163.205 3.70804 157.029 9.73002C155.743 10.987 154.549 12.3411 153.469 13.7923C149.207 19.5058 146.688 26.5904 146.688 34.2636V44.0622H156.486C168.804 44.0622 179.608 37.5603 185.636 27.796C185.648 27.7846 185.648 27.7788 185.653 27.7674C186.642 26.1677 187.499 24.4822 188.219 22.7224H188.236C189.024 20.6484 189.624 18.4602 190.081 16.5405V16.529C190.51 14.3579 190.738 12.1068 190.738 9.81001V0H180.94H180.945ZM183.179 18.1688C182.482 19.8371 181.654 21.4369 180.705 22.951C174.661 32.681 163.885 39.1601 151.59 39.1601C151.59 30.8241 154.566 23.1909 159.509 17.2489C160.177 16.4433 160.88 15.672 161.617 14.935C162.165 14.3865 162.731 13.8609 163.314 13.3524C169.336 8.09026 177.215 4.90215 185.842 4.90215C185.842 9.60433 184.893 14.0894 183.174 18.1688H183.179Z" fill="#55BB79"/>
<path d="M198.001 19.8945C197.847 20.443 193.699 23.0598 188.242 22.7227C189.031 20.6487 189.631 18.4605 190.088 16.5407C190.025 16.8493 189.956 17.1635 189.888 17.472L194.156 15.8037L198.001 19.8945Z" fill="#F4C35C"/>
<path d="M5.53634 27.2247H15.872V38.4917H21.3912V12.3926H15.872V22.6197H5.53634V12.3926H0V38.4917H5.53634V27.2247Z" fill="white"/>
<path d="M44.0279 38.4918V25.1908C44.0279 22.8083 43.3137 21.0372 41.8854 19.8716C40.457 18.7061 38.4059 18.1233 35.7262 18.1233C34.3207 18.1233 32.9609 18.2833 31.6468 18.6032C30.3327 18.9232 29.1443 19.3631 28.0873 19.923L29.8928 23.6025C30.8184 23.1854 31.7497 22.8426 32.6753 22.5684C33.6008 22.2941 34.5493 22.157 35.5148 22.157C36.4804 22.157 37.2517 22.4027 37.8002 22.8883C38.3487 23.374 38.623 24.1453 38.623 25.1908V26.065L35.1606 26.1736C32.1839 26.2821 29.9556 26.8363 28.4644 27.8419C26.9789 28.8475 26.2305 30.4072 26.2305 32.5269C26.2305 33.9667 26.499 35.1551 27.0361 36.0864C27.5731 37.0234 28.3045 37.7148 29.2415 38.1661C30.1785 38.6175 31.2297 38.846 32.4124 38.846C33.5208 38.846 34.4579 38.7375 35.2349 38.5261C36.0062 38.3147 36.6918 37.9776 37.286 37.5262C37.8802 37.0748 38.463 36.4921 39.0343 35.7779H39.1772L40.2285 38.4918H44.0336H44.0279ZM38.6173 30.8872C38.6173 32.1613 38.2173 33.144 37.4117 33.8353C36.6061 34.5266 35.6234 34.8694 34.4579 34.8694C33.6751 34.8694 33.0352 34.6923 32.5496 34.3438C32.0639 33.9953 31.8182 33.4011 31.8182 32.5669C31.8182 31.6128 32.161 30.8472 32.8467 30.2644C33.5323 29.6816 34.755 29.3674 36.5147 29.316L38.623 29.2474V30.8872H38.6173Z" fill="white"/>
<path d="M59.9678 38.4915L67.5724 18.5287H61.8761L58.0366 29.9042C57.8081 30.5726 57.631 31.2583 57.4938 31.9724C57.3567 32.6866 57.271 33.3608 57.2367 33.9893H57.0939C57.0482 33.4065 56.9625 32.7438 56.8368 32.0067C56.7111 31.2697 56.5397 30.5669 56.3283 29.8985L52.4717 18.5229H46.7754L54.38 38.4858H59.9678V38.4915Z" fill="white"/>
<path d="M79.4686 38.8517C81.0055 38.8517 82.3081 38.7374 83.388 38.5146C84.4678 38.286 85.4963 37.9318 86.4847 37.4462V33.2353C85.3648 33.761 84.2793 34.1495 83.2166 34.4123C82.1596 34.6751 80.9883 34.8065 79.7199 34.8065C78.183 34.8065 76.9832 34.3666 76.1205 33.4924C75.2577 32.6183 74.7949 31.4128 74.7378 29.8758H87.6102V27.2362C87.6102 25.2936 87.2446 23.6539 86.519 22.3112C85.7934 20.9685 84.7649 19.9401 83.428 19.2316C82.0967 18.5232 80.5084 18.1689 78.663 18.1689C76.8175 18.1689 75.132 18.5575 73.7151 19.3402C72.2982 20.1172 71.1955 21.2885 70.4013 22.8368C69.6071 24.3909 69.2129 26.3335 69.2129 28.6646C69.2129 30.9957 69.6528 32.864 70.527 34.378C71.4011 35.8921 72.6067 37.0119 74.1493 37.7547C75.692 38.4917 77.4631 38.8631 79.4628 38.8631L79.4686 38.8517ZM76.0633 23.0482C76.7604 22.3683 77.6345 22.0312 78.6972 22.0312C79.5543 22.0312 80.257 22.2141 80.8112 22.5855C81.3654 22.9568 81.7825 23.4539 82.0625 24.0824C82.3424 24.7109 82.4853 25.4308 82.5024 26.2421H74.8635C74.9721 24.7908 75.372 23.7224 76.069 23.0482H76.0633Z" fill="white"/>
<path d="M103.357 27.8075C102.523 27.299 101.541 26.8191 100.409 26.3506C99.2438 25.8764 98.3582 25.4821 97.7583 25.1793C97.1584 24.8765 96.7527 24.5965 96.547 24.3509C96.3413 24.0995 96.2328 23.8138 96.2328 23.4938C96.2328 23.0539 96.4327 22.7282 96.8384 22.5111C97.2441 22.2997 97.844 22.1912 98.6438 22.1912C99.5466 22.1912 100.438 22.3283 101.312 22.6025C102.186 22.8768 103.117 23.2253 104.106 23.6538L105.746 19.7287C104.557 19.1802 103.397 18.7802 102.272 18.5346C101.146 18.2889 99.9637 18.1575 98.7296 18.1575C96.3242 18.1575 94.4045 18.626 92.9704 19.5573C91.5363 20.4943 90.8164 21.8826 90.8164 23.7281C90.8164 24.8594 91.0107 25.7907 91.3992 26.522C91.7877 27.2533 92.3819 27.8875 93.1818 28.4246C93.9817 28.9616 95.0101 29.4873 96.2613 30.0129C97.5583 30.5614 98.5124 31.0013 99.1181 31.3441C99.7237 31.6869 100.118 31.984 100.306 32.2526C100.489 32.5211 100.581 32.8239 100.581 33.1553C100.581 33.6695 100.352 34.0809 99.8951 34.3951C99.438 34.7094 98.6781 34.8693 97.6211 34.8693C96.6784 34.8693 95.5872 34.7094 94.3473 34.3951C93.1018 34.0809 91.942 33.6809 90.8564 33.1896V37.6861C91.8677 38.1032 92.8733 38.4003 93.8674 38.5774C94.8615 38.7545 96.0557 38.8459 97.4497 38.8459C99.3295 38.8459 100.901 38.6059 102.163 38.1203C103.426 37.6404 104.374 36.9319 105.009 35.9949C105.643 35.0579 105.963 33.9152 105.963 32.5554C105.963 31.3784 105.734 30.4186 105.283 29.6701C104.832 28.9273 104.186 28.2989 103.357 27.7961V27.8075Z" fill="white"/>
<path d="M122.045 37.9374V33.8866C121.485 34.0637 120.925 34.2122 120.359 34.3322C119.793 34.4522 119.211 34.5093 118.617 34.5093C117.902 34.5093 117.325 34.3208 116.891 33.9494C116.457 33.5723 116.24 33.0067 116.24 32.2468V22.6253H121.827V18.5345H116.24V14.2837H112.76L111.189 18.4945L108.189 20.3171V22.6196H110.795V32.2411C110.795 33.9551 111.063 35.2921 111.606 36.252C112.149 37.2118 112.892 37.8803 113.84 38.2688C114.789 38.6573 115.857 38.8516 117.045 38.8516C118.068 38.8516 119.011 38.7659 119.873 38.5945C120.736 38.4231 121.462 38.206 122.045 37.9431V37.9374Z" fill="white"/>
<path d="M137.707 35.7779L138.758 38.4918H142.563V25.1908C142.563 22.8083 141.849 21.0372 140.421 19.8716C138.992 18.7061 136.941 18.1233 134.261 18.1233C132.856 18.1233 131.496 18.2833 130.182 18.6032C128.868 18.9232 127.679 19.3631 126.623 19.923L128.428 23.6025C129.354 23.1854 130.285 22.8426 131.21 22.5684C132.136 22.2941 133.084 22.157 134.05 22.157C135.016 22.157 135.787 22.4027 136.335 22.8883C136.884 23.374 137.158 24.1453 137.158 25.1908V26.065L133.696 26.1736C130.719 26.2821 128.491 26.8363 127 27.8419C125.514 28.8475 124.766 30.4072 124.766 32.5269C124.766 33.9667 125.034 35.1551 125.571 36.0864C126.108 37.0234 126.84 37.7148 127.777 38.1661C128.714 38.6175 129.765 38.846 130.948 38.846C132.056 38.846 132.993 38.7375 133.77 38.5261C134.541 38.3147 135.227 37.9776 135.821 37.5262C136.415 37.0748 136.998 36.4921 137.569 35.7779H137.712H137.707ZM137.152 30.8872C137.152 32.1613 136.752 33.144 135.947 33.8353C135.141 34.5266 134.159 34.8694 132.993 34.8694C132.21 34.8694 131.57 34.6923 131.085 34.3438C130.599 33.9953 130.353 33.4011 130.353 32.5669C130.353 31.6128 130.696 30.8472 131.382 30.2644C132.067 29.6816 133.29 29.3674 135.05 29.316L137.158 29.2474V30.8872H137.152Z" fill="white"/>
</g>
<defs>
<clipPath id="clip0_3950_13123">
<rect width="198" height="44.0622" fill="white"/>
</clipPath>
</defs>
</svg>
