<svg width="25" height="24" viewBox="0 0 25 24" fill="none" xmlns="http://www.w3.org/2000/svg">
<path d="M19.2095 21.0381C19.2095 20.7845 19.1169 20.5651 18.9316 20.3798C18.7463 20.1945 18.5268 20.1018 18.2733 20.1018C18.0197 20.1018 17.8003 20.1945 17.615 20.3798C17.4297 20.5651 17.337 20.7845 17.337 21.0381C17.337 21.2917 17.4297 21.5111 17.615 21.6964C17.8003 21.8817 18.0197 21.9744 18.2733 21.9744C18.5268 21.9744 18.7463 21.8817 18.9316 21.6964C19.1169 21.5111 19.2095 21.2917 19.2095 21.0381ZM22.9546 21.0381C22.9546 20.7845 22.8619 20.5651 22.6766 20.3798C22.4913 20.1945 22.2719 20.1018 22.0183 20.1018C21.7647 20.1018 21.5453 20.1945 21.36 20.3798C21.1747 20.5651 21.0821 20.7845 21.0821 21.0381C21.0821 21.2917 21.1747 21.5111 21.36 21.6964C21.5453 21.8817 21.7647 21.9744 22.0183 21.9744C22.2719 21.9744 22.4913 21.8817 22.6766 21.6964C22.8619 21.5111 22.9546 21.2917 22.9546 21.0381ZM24.8271 17.7612V22.4425C24.8271 22.8326 24.6905 23.1642 24.4175 23.4373C24.1444 23.7103 23.8128 23.8469 23.4227 23.8469H1.88876C1.49865 23.8469 1.16706 23.7103 0.893988 23.4373C0.620913 23.1642 0.484375 22.8326 0.484375 22.4425V17.7612C0.484375 17.3711 0.620913 17.0395 0.893988 16.7664C1.16706 16.4934 1.49865 16.3568 1.88876 16.3568H8.13536C8.34016 16.903 8.68395 17.3516 9.16671 17.7027C9.64946 18.0538 10.1883 18.2293 10.7832 18.2293H14.5282C15.1232 18.2293 15.662 18.0538 16.1448 17.7027C16.6275 17.3516 16.9713 16.903 17.1761 16.3568H23.4227C23.8128 16.3568 24.1444 16.4934 24.4175 16.7664C24.6905 17.0395 24.8271 17.3711 24.8271 17.7612ZM20.0726 8.28159C19.9069 8.6717 19.6191 8.86675 19.2095 8.86675H15.4645V15.4206C15.4645 15.6741 15.3719 15.8936 15.1866 16.0789C15.0012 16.2642 14.7818 16.3568 14.5282 16.3568H10.7832C10.5296 16.3568 10.3102 16.2642 10.1249 16.0789C9.9396 15.8936 9.84695 15.6741 9.84695 15.4206V8.86675H6.10192C5.69231 8.86675 5.40461 8.6717 5.23881 8.28159C5.07301 7.90124 5.14128 7.56477 5.44362 7.27219L11.9974 0.718381C12.173 0.53308 12.3924 0.44043 12.6557 0.44043C12.9191 0.44043 13.1385 0.53308 13.314 0.718381L19.8678 7.27219C20.1702 7.56477 20.2384 7.90124 20.0726 8.28159Z" fill="#242424"/>
</svg>
