<svg width="15" height="15" viewBox="0 0 15 15" fill="none" xmlns="http://www.w3.org/2000/svg">
<path d="M14.7477 13.0629C14.4595 12.7217 10.9669 11.0971 10.3331 10.7906C9.7027 10.4895 9.4512 9.65513 9.4512 9.65513C9.4512 9.65513 9.16743 9.84382 9.16743 9.31388C9.16743 8.78327 9.4512 9.65513 9.73497 7.60898C9.73497 7.60898 10.5223 7.34334 10.3659 5.14665H10.1768C10.1768 5.14665 10.6497 2.79806 10.1768 2.00316C9.70214 1.20825 9.5163 0.678314 8.47413 0.298258C7.43364 -0.081129 7.812 -0.00551925 7.05639 0.0332893C6.29967 0.0714287 5.66981 0.563895 5.66981 0.828195C5.66981 0.828195 5.19686 0.866334 5.00879 1.09383C4.81961 1.32133 4.50468 2.38121 4.50468 2.64617C4.50468 2.91114 4.66214 4.69366 4.81961 5.07104L4.63209 5.14464C4.47463 7.34201 5.26196 7.60831 5.26196 7.60831C5.54573 9.65446 5.8295 8.78261 5.8295 9.31321C5.8295 9.84315 5.54573 9.65446 5.54573 9.65446C5.54573 9.65446 5.29367 10.4882 4.66381 10.7899C4.03395 11.0931 0.537442 12.7217 0.253114 13.0623C-0.030657 13.4102 0.00105855 15 0.00105855 15H6.69806L7.18659 12.6849L6.75259 12.163L7.49985 11.263L8.24712 12.1623L7.81311 12.6842L8.30165 14.9993H14.9986C14.9986 14.9993 15.0337 13.4082 14.7466 13.0609L14.7477 13.0629Z" fill="#242424"/>
</svg>
