<svg width="16" height="13" viewBox="0 0 16 13" fill="none" xmlns="http://www.w3.org/2000/svg">
<path d="M15.3126 1.01425C15.2134 0.904219 15.0954 0.816881 14.9653 0.757279C14.8352 0.697678 14.6957 0.666992 14.5548 0.666992C14.4139 0.666992 14.2744 0.697678 14.1444 0.757279C14.0143 0.816881 13.8963 0.904219 13.797 1.01425L5.84549 9.77218L2.50477 6.08587C2.40175 5.97641 2.28014 5.89034 2.14688 5.83257C2.01362 5.77481 1.87132 5.74648 1.7281 5.74921C1.58489 5.75193 1.44357 5.78566 1.3122 5.84846C1.18084 5.91126 1.062 6.00191 0.962489 6.11522C0.862973 6.22854 0.784723 6.3623 0.732207 6.50888C0.67969 6.65546 0.653935 6.81198 0.656413 6.9695C0.658891 7.12703 0.689553 7.28247 0.746648 7.42697C0.803742 7.57146 0.886152 7.70217 0.989172 7.81163L5.08769 12.3197C5.18691 12.4298 5.30496 12.5171 5.43502 12.5767C5.56509 12.6363 5.70459 12.667 5.84549 12.667C5.98639 12.667 6.1259 12.6363 6.25596 12.5767C6.38602 12.5171 6.50407 12.4298 6.60329 12.3197L15.3126 2.74001C15.421 2.63008 15.5074 2.49665 15.5666 2.34814C15.6257 2.19964 15.6563 2.03926 15.6563 1.87713C15.6563 1.715 15.6257 1.55463 15.5666 1.40612C15.5074 1.25762 15.421 1.12419 15.3126 1.01425Z" fill="white"/>
</svg>
