<svg width="217" height="49" viewBox="0 0 217 49" fill="none" xmlns="http://www.w3.org/2000/svg">
<g clip-path="url(#clip0_1929_4267)">
<path d="M198.307 -0.000976562C188.113 -0.000976562 178.864 4.06288 172.095 10.6627C170.687 12.0403 169.378 13.5243 168.194 15.1148C163.523 21.3765 160.762 29.1411 160.762 37.5506V48.2894H171.501C185.001 48.2894 196.842 41.1636 203.448 30.4623C203.46 30.4498 203.46 30.4435 203.467 30.431C204.55 28.6777 205.489 26.8305 206.278 24.9019H206.297C207.161 22.6289 207.819 20.2306 208.32 18.1267V18.1142C208.789 15.7347 209.04 13.2676 209.04 10.7504V-0.000976562H198.301H198.307ZM200.755 19.9113C199.991 21.7397 199.083 23.493 198.044 25.1524C191.419 35.8161 179.61 42.9169 166.134 42.9169C166.134 33.781 169.397 25.4154 174.813 18.9032C175.546 18.0203 176.316 17.1749 177.124 16.3672C177.725 15.766 178.345 15.19 178.983 14.6327C185.583 8.86562 194.218 5.37158 203.673 5.37158C203.673 10.525 202.634 15.4404 200.749 19.9113H200.755Z" fill="#55BB79"/>
<path d="M217 21.802C216.831 22.4031 212.285 25.271 206.305 24.9015C207.169 22.6285 207.826 20.2303 208.327 18.1264C208.258 18.4645 208.183 18.8089 208.108 19.147L212.786 17.3186L217 21.802Z" fill="#F4C35C"/>
<path d="M6.06761 29.836H17.3951V42.1841H23.4439V13.5806H17.3951V24.7891H6.06761V13.5806H0V42.1841H6.06761V29.836Z" fill="#005231"/>
<path d="M48.2514 42.1841V27.6068C48.2514 24.9957 47.4686 23.0546 45.9032 21.7772C44.3378 20.4998 42.0898 19.8611 39.1531 19.8611C37.6127 19.8611 36.1224 20.0364 34.6822 20.3871C33.242 20.7377 31.9396 21.2199 30.7812 21.8335L32.7599 25.8661C33.7743 25.409 34.7949 25.0333 35.8093 24.7327C36.8237 24.4321 37.8632 24.2819 38.9214 24.2819C39.9796 24.2819 40.825 24.5511 41.4261 25.0834C42.0272 25.6156 42.3278 26.4609 42.3278 27.6068V28.5649L38.5332 28.6839C35.2708 28.8028 32.8287 29.4102 31.1944 30.5123C29.5664 31.6143 28.7461 33.3238 28.7461 35.6469C28.7461 37.2248 29.0404 38.5273 29.629 39.5479C30.2176 40.5749 31.0191 41.3325 32.046 41.8272C33.0729 42.3219 34.2251 42.5723 35.5213 42.5723C36.7361 42.5723 37.763 42.4534 38.6146 42.2217C39.4599 41.99 40.2113 41.6206 40.8625 41.1259C41.5138 40.6312 42.1524 39.9925 42.7786 39.2098H42.9352L44.0873 42.1841H48.2576H48.2514ZM42.3215 33.8498C42.3215 35.2461 41.8832 36.3232 41.0003 37.0808C40.1174 37.8385 39.0404 38.2142 37.763 38.2142C36.9051 38.2142 36.2038 38.0201 35.6716 37.6381C35.1393 37.2561 34.8701 36.6049 34.8701 35.6907C34.8701 34.645 35.2458 33.8059 35.9972 33.1672C36.7486 32.5286 38.0886 32.1842 40.0172 32.1278L42.3278 32.0527V33.8498H42.3215Z" fill="#005231"/>
<path d="M65.7239 42.1845L74.0583 20.3061H67.8154L63.6075 32.7732C63.357 33.5058 63.1629 34.2572 63.0126 35.0399C62.8623 35.8226 62.7684 36.5615 62.7308 37.2503H62.5743C62.5242 36.6116 62.4303 35.8852 62.2925 35.0775C62.1548 34.2697 61.9669 33.4995 61.7352 32.7669L57.5086 20.2998H51.2656L59.6 42.1783H65.7239V42.1845Z" fill="#005231"/>
<path d="M87.0953 42.5786C88.7797 42.5786 90.2073 42.4533 91.3908 42.2091C92.5743 41.9587 93.7014 41.5704 94.7847 41.0382V36.4233C93.5574 36.9994 92.3676 37.4252 91.2029 37.7132C90.0445 38.0012 88.7609 38.1453 87.3708 38.1453C85.6864 38.1453 84.3714 37.6631 83.4259 36.7051C82.4804 35.747 81.9732 34.4258 81.9106 32.7414H96.0182V29.8485C96.0182 27.7195 95.6175 25.9224 94.8222 24.4509C94.027 22.9794 92.8999 21.8523 91.4346 21.0758C89.9757 20.2994 88.2349 19.9111 86.2124 19.9111C84.1898 19.9111 82.3426 20.3369 80.7897 21.1948C79.2368 22.0464 78.0283 23.33 77.1579 25.027C76.2875 26.7302 75.8555 28.8591 75.8555 31.4139C75.8555 33.9687 76.3376 36.0163 77.2957 37.6756C78.2537 39.335 79.5749 40.5623 81.2656 41.3763C82.9563 42.1841 84.8974 42.5911 87.089 42.5911L87.0953 42.5786ZM83.3633 25.2586C84.1272 24.5135 85.0853 24.1441 86.2499 24.1441C87.1892 24.1441 87.9594 24.3444 88.5668 24.7514C89.1742 25.1585 89.6313 25.7032 89.9381 26.392C90.2449 27.0808 90.4014 27.8698 90.4202 28.7589H82.0483C82.1673 27.1685 82.6056 25.9975 83.3695 25.2586H83.3633Z" fill="#005231"/>
<path d="M113.276 30.4747C112.362 29.9174 111.285 29.3915 110.045 28.878C108.767 28.3583 107.797 27.9262 107.139 27.5943C106.482 27.2625 106.037 26.9556 105.812 26.6864C105.586 26.4109 105.467 26.0978 105.467 25.7471C105.467 25.265 105.687 24.9081 106.131 24.6701C106.576 24.4384 107.233 24.3195 108.11 24.3195C109.099 24.3195 110.076 24.4697 111.034 24.7703C111.992 25.0709 113.013 25.4528 114.096 25.9225L115.893 21.6207C114.591 21.0195 113.32 20.5812 112.086 20.312C110.852 20.0427 109.556 19.8987 108.204 19.8987C105.568 19.8987 103.464 20.4121 101.892 21.4328C100.32 22.4597 99.5312 23.9813 99.5312 26.0039C99.5312 27.2437 99.7442 28.2643 100.17 29.0658C100.596 29.8673 101.247 30.5624 102.124 31.151C103 31.7396 104.127 32.3157 105.499 32.8918C106.92 33.4929 107.966 33.975 108.63 34.3507C109.293 34.7264 109.725 35.052 109.932 35.3464C110.132 35.6407 110.233 35.9725 110.233 36.3357C110.233 36.8993 109.982 37.3501 109.481 37.6945C108.98 38.0389 108.147 38.2142 106.989 38.2142C105.956 38.2142 104.76 38.0389 103.401 37.6945C102.036 37.3501 100.765 36.9118 99.5751 36.3733V41.3012C100.683 41.7584 101.785 42.084 102.875 42.2781C103.965 42.4722 105.273 42.5724 106.801 42.5724C108.861 42.5724 110.583 42.3094 111.967 41.7771C113.351 41.2512 114.39 40.4747 115.085 39.4478C115.78 38.4209 116.131 37.1685 116.131 35.6782C116.131 34.3883 115.881 33.3363 115.386 32.5161C114.891 31.702 114.184 31.0132 113.276 30.4622V30.4747Z" fill="#005231"/>
<path d="M133.755 41.5769V37.1373C133.141 37.3314 132.528 37.4942 131.908 37.6257C131.288 37.7572 130.649 37.8198 129.998 37.8198C129.215 37.8198 128.583 37.6132 128.107 37.2062C127.631 36.7929 127.393 36.173 127.393 35.3402V24.7954H133.517V20.312H127.393V15.6533H123.58L121.858 20.2682L118.57 22.2657V24.7892H121.426V35.3339C121.426 37.2124 121.72 38.6777 122.315 39.7296C122.91 40.7816 123.724 41.5142 124.763 41.94C125.803 42.3658 126.974 42.5787 128.276 42.5787C129.397 42.5787 130.43 42.4848 131.376 42.297C132.321 42.1091 133.116 41.8712 133.755 41.5831V41.5769Z" fill="#005231"/>
<path d="M150.921 39.2098L152.073 42.1841H156.244V27.6068C156.244 24.9957 155.461 23.0546 153.895 21.7772C152.33 20.4998 150.082 19.8611 147.145 19.8611C145.605 19.8611 144.115 20.0364 142.674 20.3871C141.234 20.7377 139.932 21.2199 138.773 21.8335L140.752 25.8661C141.766 25.409 142.787 25.0333 143.802 24.7327C144.816 24.4321 145.855 24.2819 146.914 24.2819C147.972 24.2819 148.817 24.5511 149.418 25.0834C150.019 25.6156 150.32 26.4609 150.32 27.6068V28.5649L146.525 28.6839C143.263 28.8028 140.821 29.4102 139.187 30.5123C137.559 31.6143 136.738 33.3238 136.738 35.6469C136.738 37.2248 137.033 38.5273 137.621 39.5479C138.21 40.5749 139.011 41.3325 140.038 41.8272C141.065 42.3219 142.217 42.5723 143.513 42.5723C144.728 42.5723 145.755 42.4534 146.607 42.2217C147.452 41.99 148.203 41.6206 148.855 41.1259C149.506 40.6312 150.145 39.9925 150.771 39.2098H150.927H150.921ZM150.314 33.8498C150.314 35.2461 149.875 36.3232 148.992 37.0808C148.11 37.8385 147.033 38.2142 145.755 38.2142C144.897 38.2142 144.196 38.0201 143.664 37.6381C143.131 37.2561 142.862 36.6049 142.862 35.6907C142.862 34.645 143.238 33.8059 143.989 33.1672C144.741 32.5286 146.081 32.1842 148.009 32.1278L150.32 32.0527V33.8498H150.314Z" fill="#005231"/>
</g>
<defs>
<clipPath id="clip0_1929_4267">
<rect width="217" height="48.2904" fill="white"/>
</clipPath>
</defs>
</svg>
